<svg id="Layer_1" data-name="Layer 1" xmlns="http://www.w3.org/2000/svg" viewBox="0 0 15 15"><defs><style>.cls-1{fill:#b380c8;}.cls-2{fill:#cfc900;}</style></defs><rect class="cls-1" width="15" height="15"/><g id="_5gNdYX" data-name="5gNdYX"><path class="cls-2" d="M6.31,5.34l-.14-2.9.08,0c.06.07.15.12.19.2.24.47.46,1,.69,1.43.12.24.23.5.35.75s.36.34.57,0l1.5-2.16c.06-.08.14-.15.2-.23l.07,0-.63,3,.08,0,3-.93,0,.08L10,6.75l3.19,1-.76.1c-.71.08-1.43.17-2.14.27-.1,0-.25.09-.27.16a.38.38,0,0,0,.12.31c.59.57,1.18,1.12,1.78,1.67a2.41,2.41,0,0,0,.24.21l0,0-1.67-.58L9.32,9.54C9,9.44,9,9.49,9,9.78c.12.85.25,1.69.38,2.53a2.85,2.85,0,0,1,0,.29l-.06,0c0-.08-.12-.15-.16-.23-.45-.74-.89-1.49-1.34-2.24-.23-.39-.34-.4-.61,0-.5.66-1,1.34-1.46,2a.76.76,0,0,1-.24.23,1.07,1.07,0,0,1,0-.25c.18-.84.38-1.68.56-2.52a1,1,0,0,0,0-.3.9.9,0,0,0-.28,0l-2.23,1-.32.11,0-.05L5.29,8.2A1.73,1.73,0,0,0,5,8l-2.38-.8c-.07,0-.12-.12-.19-.18L2.49,7,2.7,7l2.41-.1c.13,0,.25,0,.29-.17s.1-.28,0-.43c-.57-.59-1.13-1.19-1.69-1.79a1,1,0,0,1-.2-.28ZM7.71,9.1A1.68,1.68,0,0,0,9.4,7.37,1.72,1.72,0,0,0,7.64,5.78,1.63,1.63,0,0,0,6.08,7.45,1.76,1.76,0,0,0,7.71,9.1Z"/></g></svg>